<svg viewBox="0 0 200 200" xmlns="http://www.w3.org/2000/svg" id="sea-lion">
  <!-- Body -->
  <ellipse cx="100" cy="130" rx="55" ry="40" fill="#6B8E9B"/>
  <!-- Head -->
  <circle cx="100" cy="75" r="32" fill="#8BA9B5"/>
  <!-- Snout -->
  <ellipse cx="100" cy="95" rx="18" ry="12" fill="#A3BFC9"/>
  <!-- Eyes -->
  <circle cx="88" cy="72" r="5" fill="#2B2426"/>
  <circle cx="112" cy="72" r="5" fill="#2B2426"/>
  <circle cx="90" cy="70" r="2" fill="#FFFFFF"/>
  <circle cx="114" cy="70" r="2" fill="#FFFFFF"/>
  <!-- Nose -->
  <ellipse cx="100" cy="90" rx="5" ry="3.5" fill="#2B2426"/>
  <!-- Whiskers -->
  <line x1="75" y1="92" x2="88" y2="95" stroke="#2B2426" stroke-width="1.5" stroke-linecap="round"/>
  <line x1="75" y1="98" x2="88" y2="98" stroke="#2B2426" stroke-width="1.5" stroke-linecap="round"/>
  <line x1="125" y1="92" x2="112" y2="95" stroke="#2B2426" stroke-width="1.5" stroke-linecap="round"/>
  <line x1="125" y1="98" x2="112" y2="98" stroke="#2B2426" stroke-width="1.5" stroke-linecap="round"/>
  <!-- Flippers -->
  <ellipse cx="55" cy="135" rx="15" ry="8" fill="#8BA9B5" transform="rotate(-15 55 135)"/>
  <ellipse cx="145" cy="135" rx="15" ry="8" fill="#8BA9B5" transform="rotate(15 145 135)"/>
  <!-- Tail -->
  <path d="M155 140 Q175 130 175 115 Q175 105 165 100" fill="#8BA9B5" stroke="#8BA9B5" stroke-width="6" stroke-linecap="round"/>
</svg>
